/* XPM */
static char *result[] = {
/* columns rows colors chars-per-pixel */
"64 64 179 2 ",
"   c #6B5747",
".  c #665847",
"X  c #6F5845",
"o  c #675A48",
"O  c #6C5B4C",
"+  c #715846",
"@  c #725D4B",
"#  c #795E49",
"$  c #6D604E",
"%  c #74644F",
"&  c #7C614B",
"*  c #7A684E",
"=  c #6C6453",
"-  c #6F6850",
";  c #6F6759",
":  c #6E6858",
">  c #716352",
",  c #7B6656",
"<  c #756B55",
"1  c #7B6957",
"2  c #716758",
"3  c #746C5B",
"4  c #7C6C5C",
"5  c #7A7056",
"6  c #76705F",
"7  c #7B725D",
"8  c #756F61",
"9  c #7C6F61",
"0  c #767264",
"q  c #7C7464",
"w  c #7E7865",
"e  c #7B7669",
"r  c #7D796B",
"t  c #7E7D72",
"y  c #7F7F78",
"u  c #936D4E",
"i  c #846951",
"p  c #8C6D52",
"a  c #836C5C",
"s  c #886E5E",
"d  c #817256",
"f  c #83755C",
"g  c #8B755B",
"h  c #84795C",
"j  c #8A7A5D",
"k  c #967253",
"l  c #9B7556",
"z  c #94765B",
"x  c #9B765B",
"c  c #957A5E",
"v  c #9C795D",
"b  c #A27A5E",
"n  c #826E61",
"m  c #827564",
"M  c #8B7664",
"N  c #847B64",
"B  c #8B7D64",
"V  c #817669",
"C  c #847C6B",
"Z  c #8B7D6B",
"A  c #937E63",
"S  c #9C7C62",
"D  c #927E6B",
"F  c #997E6D",
"G  c #837E72",
"H  c #897F71",
"J  c #A37D62",
"K  c #A97F64",
"L  c #8C8166",
"P  c #86816C",
"I  c #8C836C",
"U  c #8F886E",
"Y  c #928166",
"T  c #9D8167",
"R  c #93856C",
"E  c #9A846D",
"W  c #95896D",
"Q  c #9B896E",
"!  c #99906A",
"~  c #858173",
"^  c #8B8474",
"/  c #8D8974",
"(  c #84837A",
")  c #8B867A",
"_  c #8D897C",
"`  c #938672",
"'  c #9C8372",
"]  c #948A74",
"[  c #9B8C75",
"{  c #918778",
"}  c #9E8778",
"|  c #938C7B",
" . c #9C8E79",
".. c #979177",
"X. c #9C9175",
"o. c #96917C",
"O. c #9C927B",
"+. c #9D987F",
"@. c #A58066",
"#. c #AA8165",
"$. c #A1856D",
"%. c #AC856B",
"&. c #A1896E",
"*. c #AE886F",
"=. c #B0896E",
"-. c #A28674",
";. c #A48B74",
":. c #AB8C74",
">. c #A28778",
",. c #A38C7A",
"<. c #AD8E78",
"1. c #B38D73",
"2. c #B58F78",
"3. c #B88F78",
"4. c #A29275",
"5. c #AB9177",
"6. c #A79A76",
"7. c #A2947C",
"8. c #AB947B",
"9. c #A3997D",
"0. c #AA9A7E",
"q. c #B49075",
"w. c #B89176",
"e. c #B3937B",
"r. c #B9927A",
"t. c #ADA37F",
"y. c #878781",
"u. c #8C8B83",
"i. c #8D8D89",
"p. c #928E83",
"a. c #908F8A",
"s. c #959184",
"d. c #9B9583",
"f. c #9F9982",
"g. c #94928B",
"h. c #9A968B",
"j. c #9E998B",
"k. c #9F9A90",
"l. c #A29681",
"z. c #AA9781",
"x. c #A39A83",
"c. c #AB9D84",
"v. c #A29C8B",
"b. c #A99E89",
"n. c #B19680",
"m. c #B19C84",
"M. c #B99E86",
"N. c #B29F89",
"B. c #A39E91",
"V. c #ABA185",
"C. c #A7A08B",
"Z. c #ACA38C",
"A. c #B1A186",
"S. c #B2A48B",
"D. c #B8A68F",
"F. c #B3A88F",
"G. c #A6A194",
"H. c #ABA592",
"J. c #AEA994",
"K. c #A9A598",
"L. c #B1A792",
"P. c #B8A691",
"I. c #B4AB93",
"U. c #B9AE95",
"Y. c #B4AD9A",
"T. c #BAAF99",
"R. c #B7B096",
"E. c #BBB197",
"W. c #BCB39A",
"Q. c #B7B2A1",
"!. c #BFB7A1",
"~. c #BFB9A3",
"^. c #C2B69E",
"/. c #C1B99F",
"(. c #C4BBA3",
"). c #C8BFA6",
"_. c #C7BFAA",
"`. c #C9C0A7",
"'. c #CCC2AA",
/* pixels */
"C H ^ { C H f.] q r G G ^ G 0 0 L Z.C.f...X.A g ` C d.) G Z ~ C I P - = = 6 r ) r < w r r C ^ C Z C H ; e s.[ k b #.K b x %.#.v ",
"P ^ ^ { ^ C ^ { q ~ C C C 9 8 r P C.Z.f.Q Q S x ] / j._ H ) _ ~ ] +.7 3 : 0 0 r 0 6 P P r P G C H H C 3 C d.[ W z b #.b x J #.T ",
"R q C I I I ` O.3 q : = 2 0 0 P L B W ! @.x b S Y h w P H  .p.) | x.q q 9 0 e C t e w ( ~ ~ ^ ^ { q 3 V | | ] | O.Y l b x K @.[ ",
"f.] l.x.7.,.,.b.q q r C V e C O.X.[ A b #.b J J b g 3 e { s.s.| o.x.q w q 8 0 G e r e r ^ ~ ^ w q 4 ^ d.{ a.d.v.O.o.T l J J 4.C.",
"v.v.l.,.' ' >.b.^ C C H ^ C P 7.Q T #.=.J K x J #.v 7 C ~ / ^ ) s.f.q q 0 e G ) r e r q q 0 2 2 ^ f.b.I ^ p.s.h._ _ X.g p [ J.B.",
"{ ] [ E E ' ' -.[ C H ^ ) G ` 7.7.Y k b K K x J %.S Z ^ ^ { ^ C / d.N r ~ ^ H G e e P - = q  .S.m.l.l.M M p.^ ) p.C P ] b.J.v.g.",
"X.[ ] E >.-.' F } m V ^ ~ ^ ] [ ] ] ] S b b x J %.T ` Z C ^ Z Z q X.q C r 3 7 q 3 0 / +.R 7.8.m.z.<.' ] D | ) ^ ( P m ] L.K.B. .",
" .] O.R } } ' F } B m q r C I ^ p. .f.X.v x b J J 4.x.N Z ] ]  .[ C.V 3 8 3 2 9 e P [ ..Y :.m.m.m.;. .Y.l.` { { ] / V x.K.B.v. .",
"f X.7.E ,.>.' F F 7.N < < q L _ h.v.s._ ..x k v 9.Z.v.x.0.b.,.,.-.b.] C G H H C r O.,.] E :.8.N.6.[ H.J.Y. .[ | ^ C f.+. .] Y h ",
"V.L.V.] F >.` M D x.0.Q B U x.s._ p.s._ ] ] M X.H.B.h.d.+.[ E F -.,. .C C G H ( C [ 7.0.7.0.z.;.[ j.j.C.C.x.Y N ^ X.S.S.] B j j ",
"(.(.U.b.-.F D D 7.7.;.` R Y ] | ) ~ ^ ~ q C V.Y.B.d.| ] ` D ' -.' F [ Z C { ^ ~ / [ c.D.N.0.b.4.O.x.x.C.9.F.[ L 7.e.:.:.m.Z.V.F.",
").'.^.L.x.' 9.4.[ ` [ ] ` ` R ` | _ ^ ^ V U H.K.B.l...X...' } >.-.F ' R 9 C C G ` ;.m.S.A.c.z.b.f.O...9.0.S.U.c.5.w.r.w.1.V.0.I.",
").`.W.F.U.0.Q [  . . . . .{ ` R ` | { ` C X.b.v.f.] Y R 9.R } } ' F F ,.N 4 q C N W m.A.m.A.m.0.j.j.+.V.6.c.V.;.1.r.3.3.1.c.9.S.",
"W.W.W.S.7.Y ' [ [ }  .} `  .[ ` R ] _ C x.J.] L f d 5 X.x.[ -.,.} F D >.O.h < 5 W j 0.m.0.m.A.c.f.C.+.0.4.V.4.-.<.w.w.1.%.;.7.9.",
"V.F.W.S.] E [ }  .O. . .` R ' Z Y f C 7.0.8.0.7...4.F.^.P.c.E -.' Z D 7.V.4.[ R O.h E A.A.A.m.m.x.f.j.X.z.S.;.:.5.w.w.1.*.:.c.` ",
"L W 9.S.] Q '  .,.l.l. . .B B [ S.O.x.e.2.1.2.A.0.Z.^._.(.L.9.D Z [ 7.[ [ ` R I R f f m.S.D.D.D.z.| O.9.Z.C.V.8.5.q.3.1.*.K c.S.",
"Z.x.W R 9.R Q [ [ ,.,.[ 7.X.R F.W.c.5.q.r.r.2.n.b.C./.'.`.D.I.0.l.[ '  .}  . .` ] Y B [ m.D.c.c.m.Q W Z.v.v.j.d.;.2.r.r.%.&.F.U.",
"] ] R R F.O.Q ;.7.7.7.[ [ 7.b.W.S.Q :.e.r.2.1.:.7.9.^.(./.F.F.7.E [ [  . . . . . .R [ ] [ 7.0.5.0.R.Z.f.g.v.h.a.d.5.1.1.;.x.[ X.",
"] / P I ..0.W E Y Y 4...Y 0.(.R.5.;.;.w.w.1.1.%.z.X.Z.I.W.U.4.Y E ,.}  . . .` ` ` ` 7.R.R.V.7.4.0._.C.p.a.g.h.g.p.7.&.Q X./ | X.",
"o.] ] I W 7.b.W L g h ! t./._.I.0.5.:.q.1.1.1.%.5.9.R 0.F.R.O.W E [ } l. . . .Z Y R [ A.M.A.N.I.x.H.| p.g.g.i.i.y.v.I.4.[ [ | O.",
"[ ] / ` R 4.F.V.t.U U ..O.l.b.v.b.z.4.q.w.w.1.#.7.W.V.W R X.+.W Q [  .,.9. . .[ D R F.;.2.*.:.S.+.o.( g.g.j.i.i.g.C.0.W R X.] ] ",
"` ` I ] O.9.M c V.f.| _ _ / g.B.h.g.O.;.r.r.:.;.V.x.b.x.O.Y x.9.R ;. .7.[ [ ,.9. .Z.b.*.2.<.1.:.` ^ y.s.g.h.i.a.G.7.W W P ` ` R ",
"X.O.R W O.g # i X.o.t ~ ) ) p.g.k.g.s.7.:.%.;.7.] X...` I P O.Z.Q ;.[ >.7.8.Q [ V.R.' e.n.2.r.2...G ) i.i.i.y.u.d.] R R R P N P ",
"P L B  .a @ + & Y ~ t ~ ( _ p.g.g.g.i.o.x.4.[ R ` | o.` / L W 4.O.Y Y j Y W W 0._.P.:.8.n.2.&.$.[ ~ ) y.i.) ( _ / Y B N N L C C ",
"m W R 1 % @   # W / ( t G u.g.h.g.i.i.g.U.7.Q X. ...O.| ` U I Q F.V.! L h Y t.F.~.R.n.e.:.-.>.` a Z ] ( s.y ~ ` C I B N N N w I ",
"O.X.1 @ $ O   * X./ ( ~ ~ a.a.h.g.i.g.C.9.Q I W ` I ] ] I ` ] X.c.;.A.+...o.| / x.~.U.<.:.5.z.M s M ^ ^ ) t { [ N N N N N I / C ",
"W.O.@ O O O O h ..I r ~ ( a.p.g.i.i.h.x.W R U U I R [ ] ] R X.l.f i Q C.| ( / / / H.I.7.z.b.Z a a m q / ~ / x.R 7.W N N N N N X.",
"` x.V O O O % U N P N P ( _ u.a.( y._ ` ] L L P N V I X.R ]  .a # # c / t t ( ( ^ o.H.R.l.m s a 4 m 7 { R.I.` m D >.W d < < B Z ",
"q C m o o O 7 q 7 P f.` ^ ) u._ y ) U P B 7 7 L C P N B I R 4 @ $ X h / ( t ~ t r ( j.J.n a n , 9 V V Z !.b.D M F J J S z x N q ",
"e q V 7 o $ 7 7 P / { ` / ) p.( y ] L P L L N N N C N W ` 1 @ @ X X L ..( ~ t r r e / W a n n 9 q V q V l.E x b b b J b J S z q ",
"0 0 q r > < I ] 7 N C H ^ ^ ^ t P V...P 7 L P I ` / x.C.1 @ $ O X $ ! / ~ y t t r 0 C I , a 9 9 3 9 9 0 C Z l #.K K K J S J J B ",
"w C ^ ^ C P f.| q r C G ^ G e 0 L Z.C.+.L 7 < 7 7 L b.F.B o O O $ 5 ! U P w 7 7 N P ..+.q > 4 9 9 q n 2 r d.Q l b K K J x %.#.c ",
"Z ^ ^ ] H C ^ { q ~ G C C 0 3 w L C.F.j.[ X...h P V q I [ Z > o $ h m 7 q Z N ] I P ^ ] O.< 1 9 q / C 3 C d.[ R z b #.b x K K S ",
"I m C Z R P W O.3 9 ; $ 2 q 0 P P L U o.C L +.X.V 9 C ) ` O.] = < q q 3 q  .N V V C C P c.f.5 3 P C 3 V | | { | O.T l v x K K  .",
"x.] l.x.7.,.,.b.q q r C r q C O...W L ] ` V ` W 7 C _ s.d.j.o.` q 4 q q f.C...] l.9.7.,.c.v.Z 0 q 3 ^ d._ p.d.v.O...T l b J ,.C.",
"v.v.x.[ ' ' >.b./ C G H ( C I 7.4.X.[ [ ..Z R b.P q | s.h.s._ | ] V C x.J.G.j.c.9.} ' >.7.f.2 : / l.b.Z ) s.s.h.u._ X.g p [ J.G.",
"{ | [ E F ' ' -.[ C H ^ ^ G ` 7.c.S.z.z.9.[ ` z.X.f { { ) _ _ r I +.L.H.j.s._ ..' F F ' ' 7. .N.m.l.l.M M p.^ ) u.C P ` C.Y.v.s.",
"..[ ` E >.>.' F ' m V ^ ~ ~ ] 7.S.S.c.c.V.z.,.,.[ D ` | ^ ~ ^ r V f.Y.G.j.[ X.] ` ' >.-.F F 8.m.z.<.E ` D  .) ^ ( P q ] L.K.B.O.",
" .] X.` } } -.' -.L q q C P L 8.A.A.A.S.z.c.m.E v.K.[ { { ) | Z I C.K.k.f.X.[ X.[ ` } -.' :.m.m.m.,. .Y.x.` { { ] ] N x.K.G.j.] ",
"f X.l.E ,.>.' D F ,.N < 3 q j Q A.c.n.N.m.0.E l.H.Q.N.R  .| ^ P x.X.O.] L f j x.[ ' ,.} ' :.e.N.5.] H.Y.Y.[ | | / C f.+.O.] Y f ",
"V.S.V.R ' -.' Z D x.x.Q B W X.B m.m.m.A.m.8.7.v.j.C.C.X.L C / x.P.x.Y h g Y Z.Z.0.R -.} ;.5.8.4.X.j.j.C.C.x.Y C P ..S.N.] j j B ",
"(._.U.b.' E D D 7. .;.] R L R % ;.A.A.P.S.c.f.x.x.9.9.F.L I z.5.:.e.S.V.V.W.(.^.F.X.' F ' 6.Q [ 9.f.x.x.9.F.X.B l.e.:.:.m.S.V.F.",
").'.^.F.x.R 7.,.[ [ } ` ` ` R M A c.A.S.A.V.d...X.t.0.R.F.0.1.r.r.2.e.b.c.W.`.`.I.F.' R W h B x.j.+.X.9.6.F.I.c.5.w.r.r.1.V.0.I.",
").`.W.F.I.0.' [ [  .7. . .| ` R W Q z.A.0.x.j.f.+.V.6.S.9.:.q.e.3.r.:.c.9.W.'.`.I.I.J.O.] W C.J.j.f.+.V.6.c.c.;.w.e.w.r.1.z.0.Z.",
"W.W.W.S.9.A -.[ } [  . .` [ [ R x.c.x.[ 8.4.j.C.O.0.X.V.;.;.q.w.1.=.%.,.X.F.W.W.R.V.f.j.j.C.Z.Z.j.C.f.9.4.V.:.;.:.w.w.=.*.-.X.x.",
"V.F.W.Z.W E [ [  .,. .O.{ ` ` I 0.T.^.S.V.O.O.j.x.X.F.0.:.:.5.w.w.w.:.e.x.[ S.U.W.x.h.H.j.s.h.f.O.f.x.X.b.S.;.5.:.w.3.w.1.*.c.W ",
"Y W O.F.[ Q ' ,.l.7.l. .[ Z B [ V.:.2.:.m.R.O.o.d.z.H.C.0.:.q.q.w.1.%.@.S.X.R ..V.Z.j.s.s.s.s.s.] | d.+.C.C.V.8.5.w.w.2.=.@.c.S.",
"Z.9.W R 9.R Q [ [ ,. .[ O.,.R S.9.:.2.:.1.0.C.] O.Z.v.j.j.X.;.r.w.2.K 7.I.R.C.X.Y W _ _ ( _ f.h.d.4.] Z.j.v.j.+.>.1.r.r.%.&.L.Y.",
"..] ` L F.O.Q [ 6.7.7.[ ;.O.V.F.-.r.2.2.r.,.H.U.b.d.h.k.g.g.X.1.1.:.7.7.X.X...] L U _ _ s.s.s.s.d.W.H.f.g.j.h.g.d.5.1.1.;.0.[ ..",
"] / I I o.0.E E A R 4.[ Y 0.(.z.;.n.n.<.:.:.R.(.s.p.a.h.g.g.s.7.@.;.X.I  ...] ~ P / ( _ o.u.s.s.p.~.b.p.a.h.h.g.p.d.&.Q X.` | ..",
"] ] ` I R 9.b.W B g g ! t./._.z.e.e.2.-.E D d.Z.) a.g.g.a.i.p.H.Z.Q [ ] | O.] ] | f.) s.u._ _ s._ H._ i.g.g.g.i.u.v.I.4.[  .] O.",
"[ ] U / R 4.F.V.9.W W ..O.x.W.W.n.:.-.:.b.a Z p.u.g.h.j.u.g.h.C.4.W ]  .] | o.] d.d.s.| s.s.s.s.s.d.y.s.g.h.i.i.g.b.c.R R X.] ] ",
"] / / [ O.4.M c V.d._ _ _ ^ C.W.N.:.z.c.Z a V ( p.u.g.g.a.g.H.X.W I I ] I W ] _ ^ ) s.s.s.d.j.s./ ^ y.i.s.g.i.a.B.9.W W P ` ` R ",
"[ +.R R O.M # i +.o.y ~ / ( _ C.L.b.b.Z s 1 n ( u.u.a.y.y.u.O.` W W I P P R { ^ ^ s.s._ u.| ) ~ N G ) i.i.a.y.u.d.] R R R P N P ",
"Z I L O.1 @ @ # L ~ t P ( P P | I.H.n s a , 9 ~ _ y.a.y.) / I Y h N N C N C Z I P p._ _ o.G 8 C | ^ ) ) s.y.( _ P R B h N P C C ",
"f W R 1 # @   # ! U ( t t e r ( j.D a n 9 n n Z ) _ p.G ) / Z L N w B N V B N +.C.P / d.C q P  .| R _ ) s.y ~ / C I j N w B V L ",
"+. .1 @ $ @   * ! _ ( ( P t e 0 ~ f 1 n 9 m H ` / _ G G O.R N B N N P I ^ N x.Z.f.f.P N w P Z H Z ` ^ ^ ) r { [ L N P N P I / N ",
"W.O.@ O O O O B ..U r e 0 0 e r ..P < 4 m Z Z Z V ` G ..7.` O.M h N N N I Z.J.o.^ ^ L ! h V V Z H Z q I ~ ] x.R O.W h 7 h C N  .",
"^ x.h O O o % L h P w w L U U / f.+.7 % m Z V V 4 x.R.Z.Z V ' [ R h < 7 L P ^ ( C ~ ^ 9.Z V V Z Z C 9 { I.I.` m D } ] L 5 < B P ",
"C C V O 2 = 7 V 7 6 2 2 w P w e q U +.7 1 q V V q f.(. .m m D C ] 0.X.I q w q r ~ ^ C | I m V Z V q r Z (.b.Z M D M D 9.9.[ C r ",
"j.) G P ^ r o./ q 3 2 : 0 0 6 / ..U ..+.m 3 q V 0 H z.Z m 4 m V m W [ 7 q e q e e 0 r C / m C 0 9 V q G v.' z x x z S E Q Q ] | ",
"^ ~ ^  ._ ^ f. .q 3 8 0 q t r e ..6.+.+.C 4 m 4 q q | n 9 m m m V I +.P 0 e 8 G r 0 3 0 O.Z M 0 8 V V u.| x u k J J S x v S R P ",
"8 G | s.s.] f.] 7 q 0 7 e t r r P +.9.+.] W Y q q 4  .` m q 9 m V Z 7.l.2 : 0 H C q < 6 ] ] { ] |  .d.p.^ u b b x J J b J v c 5 ",
"q C { | { _ j.| 7 e 0 0 P t r t P V.C.C.] ..[ m m m H x.V 9 9 9 V Z H O.3 3 G G P q 7 U U r C Z ^ C V Z { g l K K J K J J @.b f "
};
