/* XPM */
static char *result[] = {
/* columns rows colors chars-per-pixel */
"64 64 55 1 ",
"  c #544F4B",
". c #57534F",
"X c #58554F",
"o c #565350",
"O c #5A5651",
"+ c #5E5A54",
"@ c #615D56",
"# c #625E59",
"$ c #66625C",
"% c #6A655E",
"& c #6B6761",
"* c #6E6A64",
"= c #726D66",
"- c #746E68",
"; c #76716A",
": c #7B756D",
"> c #7E786F",
", c #7D7770",
"< c #7E7971",
"1 c #80776F",
"2 c #81796F",
"3 c #837C73",
"4 c #887F76",
"5 c #857F78",
"6 c #868077",
"7 c #8A8176",
"8 c #878179",
"9 c #8C847A",
"0 c #8F887E",
"q c #908477",
"w c #91867B",
"e c #948A7E",
"r c #988C7F",
"t c #8C8680",
"y c #8E8981",
"u c #958D81",
"i c #998E82",
"p c #958F88",
"a c #969086",
"s c #9C9285",
"d c #969189",
"f c #9D9589",
"g c #9F988E",
"h c #9E9990",
"j c #A09586",
"k c #A19689",
"l c #A39A8C",
"z c #A99D8E",
"x c #A59D91",
"c c #AA9F91",
"v c #ACA293",
"b c #ACA499",
"n c #B2A697",
"m c #B4A798",
"M c #B3A899",
/* pixels */
"ffkddgx<<xsdfdggfa0rayh>;dddgghga009e0g=-faaada0hhfaffb=5aaeufss",
"lllksln7ylfjllzbzfrerag88aaaafggfreerfk6>krarafaafarsgMa0fsslzkf",
"kknkkzv5ylsssfflgrsrruf<3a0r0araeee0rrk33farrra0000rssg80lssllfs",
"sjckffz80lflssffsssruur<3eraarrrere00er>3lar0rrrr0eafsa<0ksriiui",
"jsidksk80zsfsrfkksssars36srrffsreeew0ef63garrrrsrrrrser>ukjuuwui",
"iiiiiis36srraskfsffsraz39zlfkkfrrew0e0e>3ffrerssrr0ee0r;wkiiewwu",
"uuuuiif80lsfflzzkkfsssl8yvlglglkrkreqef66zsgsssfffrrssf:9jijsuur",
"7777yuu=;a69aaar00770qu**f9890962662660$$63636666679666 *55ww444",
"5yw79ee770aarag;%93236763yu7y55@=e66666ee069q90%%44114445544uyu;",
"uiiissuasskllfv00zflljsfcllkkuj90rereeerrrrkssk64irirszjiijjlslk",
"uuireiuerrflfaf69ljirsrsikjirwi79reree000rrsrer>4s4rr4rrwiiiiisi",
"uiieeueesasasrf39jirruswusjiuis3>ereeee000rrrrr:4irrrr44uisiiisu",
"uiuuee0usfaasus<3sierirririsiri16eeerrrr0weeqqe;4ireiirrrsierwii",
"uuiuweuussweees>3fuwweriisjriue16r0ererre0q000r;1rrw4ir4w4w44wiu",
"ujsjarrrraeeeaf69kuueeuiiissssjw9reerrarrrrrrrz64ijjlsiuirijijji",
"1t449963667600a*:gyew97wweewu9u&%69900067666q00@%ww444111114t59=",
"4tt4tty&#53,35y75yuyu70+$u75553;;;6669e#$966663>;222324#&4114445",
"llsiius43iuukddglxljsij31kiiuisirrrrrrr2>zkkrflzjsrsiei4eljissis",
"fuyuuui1:7wufiuudsiirwi33jiruuree0eqeee;>fkrrrrrwwwrrwi24siuuuii",
"uwwuiii1:w0uiueuifsirrr;;jrruwre0e6q00r:>rrlrfrrrrwrirj24sissiii",
"wuussuu1=7wwewwwijjssur:;rwqwrwwe9q99er:>rrkrerrrrwwrrs23iiikiiw",
"ttiisuu;=uu0wuwwiiiikjj11irwwweeq9eeeer;=rrrerrrrrrqwrj11iiiuiiu",
"yuuiiuu1,eeiaueuiklssjl73jsrweekrree0rr::rrlrrrrrwrrqws;1eiiuiii",
":413314#%33331:34ew7447%@2;-::33262>626X+>:6:67:1444424X$4311331",
"&5:16><:;;>63><.#y3331:3==-:337$-0666622>2>>667$14444441:44444t1",
"uuufffarerrarws:;jusijiiiiuiiijw0rewqwrrswweeqe;444rr44iwwriiufi",
"4utuuuerre0reeu>;iyuweeeeewwrri39ee900rrrrwwq7e;144ir4r44wweuuu4",
"t4wuruuuaeeewws61suirwrreuqewwi46r090erewsw777e;4rrrr44rw44rwiw4",
"ww0euusrrrrrrer>1uurrrrrwerrwru39e09erreeiw444r;1rqrrr4rs4wwwii4",
"uueuusssaeree0r>1iwwrrirwwrrrqr36ree9ereesrwe4e;1qqq4rr4ii4w4us4",
"uifffllsssrarakw5kijjsiijrjrwwj30lrkeeerissuwrs34rrr4rii4iiwwrsr",
"5iaiadu00007060%@11112321443433+&92>696>3441414#=424414144444ww1",
"0rgrrar=*r006062:>69366%%00600666609000%=633636:>62644q%:ewwwu44",
"sggggrg06rrrrrrrrvrrrrr09rrvrrlrrrrrrrr90r0rrssrqeewrwr7wjrriiii",
"rgrggrr0>r0rrrrrrrrrrer66rrrrrrlkrrrr0f66q0eesseqeqq7qr24wwwiiik",
"jggggrg66r0rrrrrrrrrrer6rrrlrlgrrrrefrk6>eeearrewqeqwqq24uwweiei",
"glssrgv6<g0r0errvrvrzrr60rrvrgrrrreerrf6:eqrssarerrerqq:4ui4wi4s",
"rlssrvv>;rrrrrrrrvrrrrr06rrrrrrrrrre00r3>q9rrrrrrsjwqeq:4iiuu4rj",
"sjgjrrv06xgrrgrgzrvrrrr90vrvrrrrgfrfrag96seeraaasssrrjr24jssi44j",
"6060a00*+6>6>606690000r@%r06622>::>>>:6++6>;:3<>>>22722@&4444434",
">6600000660660r=>rrr00rrrrr009r&$92>>::>->::>30#&t34411111334uu=",
"arsgjlzzvvgxzrvrrvrzrrrxrzxlrrr>;eeerre0eee0rrs31iwifjiissiiu4ii",
"0rgrsjgsrrxrrgz6rvrrrrvrlrlrrrr>=w999re9we09eer>1iwiiwrw4u4iw4ww",
"0gsgsssarxrggrr00xrrvrvrrzrlvrv3:eeeere9wrew90a>3jereiiiiis4wutw",
"aaszgrrrrvrvxrg00vrvrrvrrlrrgrg<>reareeeqwwqq7r:1iiiwiiiiiieeeiw",
"argsaararxgrxrvy0Mrrrrrrrrrlrgg;>krss0097qq7770:1iiuuwririiwrru9",
"asagsggzxrxxxvMrrMrrrrvvrvzlglg<>fkfkse0eq0wwer24kjjdijfikdwefft",
">6>>66666660660*;r0er0660r06668+X**;>33;=>>>>:6XO11131411443w44&",
"0a00aaa*$y006000060r0rr$%r0606<>==;:<26+@3:>:>>>115557y#=95yw555",
"agggggva0gxvvxxglvlrlrl0>zrgxxrrrsare0r6-wqwrarajkkisskyyuiiiifi",
"0r0ggrg00gggggrgllrlrrz63lgr0rrr0rae0es:;w990erriruyuei35uwwuaii",
"ag0srag0yxxxlgxrlvrrrrl6>grrrgrrr0rresf>;w70erareuyiuuf35iiuuuii",
"rarrarg00vgxgjjrllrrkrr63rregrrxfrrrrwa:;w79eraaeeuisif59iiiyuuu",
"g0grggg00xggrgsgrgrzrrl23g000grgfrr0e0e;;97werrrreiisuf35fiauwru",
"ggggxgxayxxvvgzzbzzrlrr06zrrfgfggxfssus;<seeafslkkskssx95fkkjkkk",
"666>666$*a00aaa0ee09009$@3;;>>63>666866O+3-;><>>4535559@&u858533",
"6a06y66666000ar;;099009663<6988%@36936366627726+#41314t49pu8u0y-",
"agrvxgxgrgxxggvafgfkkgkkksrffrr60aafaaaafsskarf04ssjfssslkkkggxu",
"yagggrgrargggra6dgaarraffeere00>6rrrarrewesaees64i4siuuuiifkjaiu",
"aarxggrrgggggag00rrrrkfkfreeree66eeasfrreeaeees<5iuiiuuudisfiuip",
"a0hggga0arggggg09d0aarfggfeflrr3<erfasarueeeuis,3uuiiiufjiuuuuja",
"dhrgggraaaaargg68garfrfaffrgxfa36eaasfsasuuasus33uuiuuikljuuuuku",
"ggxgrxgggggghgg69gggfkfgghxxzgg860earffflsasfsi34uussssflkfsiuff",
"dggggggxgghhgah><grggaagfggfhhv<3aeraaraduuudiu-3wuudffdfffkspkp"
};
