/* XPM */
static char *result[] = {
/* columns rows colors chars-per-pixel */
"64 64 121 2 ",
"   c #423D3E",
".  c #454142",
"X  c #4A4546",
"o  c #4C4748",
"O  c #4D4949",
"+  c #514847",
"@  c #544D4C",
"#  c #594E4C",
"$  c #57514F",
"%  c #5B524E",
"&  c #565152",
"*  c #5D5553",
"=  c #5E5858",
"-  c #61554F",
";  c #6A554F",
":  c #615653",
">  c #6C5550",
",  c #635956",
"<  c #6B5C56",
"1  c #655D5A",
"2  c #6A5E5B",
"3  c #705752",
"4  c #725C55",
"5  c #745F59",
"6  c #67605E",
"7  c #6C615D",
"8  c #73635D",
"9  c #7A655D",
"0  c #7B695F",
"q  c #666062",
"w  c #6D6462",
"e  c #736662",
"r  c #796662",
"t  c #756965",
"y  c #7B6B64",
"u  c #766C6B",
"i  c #7C6E69",
"p  c #7E716D",
"a  c #7D7372",
"s  c #7F7779",
"d  c #80675E",
"f  c #82695F",
"g  c #826760",
"h  c #826D63",
"j  c #886D65",
"k  c #816F69",
"l  c #837067",
"z  c #8B7166",
"x  c #84736C",
"c  c #8B756C",
"v  c #8C786F",
"b  c #927467",
"n  c #92766A",
"m  c #947A6D",
"M  c #9A7B6D",
"N  c #837672",
"B  c #897771",
"V  c #867974",
"C  c #8C7A74",
"Z  c #847A7A",
"A  c #8C7E7A",
"S  c #937D74",
"D  c #9B7E72",
"F  c #917F78",
"G  c #987F78",
"H  c #8E817D",
"J  c #958176",
"K  c #9C8175",
"L  c #93827C",
"P  c #9B857C",
"I  c #9D887E",
"U  c #A18476",
"Y  c #A1867A",
"T  c #A38A7E",
"R  c #A98C7E",
"E  c #8D8282",
"W  c #8D8788",
"Q  c #8F888A",
"!  c #948681",
"~  c #9A8781",
"^  c #968983",
"/  c #9C8A83",
"(  c #908788",
")  c #958C8D",
"_  c #9B8D8A",
"`  c #9D928D",
"'  c #998F91",
"]  c #979090",
"[  c #9C9393",
"{  c #9E9798",
"}  c #A38D83",
"|  c #A98E82",
" . c #A38F89",
".. c #A69086",
"X. c #AB9285",
"o. c #A5928A",
"O. c #AB948A",
"+. c #AE988F",
"@. c #B19485",
"#. c #B1968A",
"$. c #B49A8D",
"%. c #A39692",
"&. c #A99691",
"*. c #A59995",
"=. c #AC9A93",
"-. c #A59B9B",
";. c #AC9D9A",
":. c #B29C93",
">. c #B89E92",
",. c #B19F99",
"<. c #B4A19C",
"1. c #BAA69E",
"2. c #B6A5A1",
"3. c #B9A7A2",
"4. c #B6A8A6",
"5. c #BCABA4",
"6. c #BBACA9",
"7. c #BFB0AD",
"8. c #C0ADA4",
"9. c #C2B2AD",
"0. c #C6B6B0",
/* pixels */
"B c c C J H v L I I J L N H p J x l v v c z J J p 0 l J J H J L L L J J J L H J L P L L C x V H v J v V H v v v p y p c v J P J ",
"} T / } ..I I I I ` ..` T I I I ............O...T ` / / o.` I I T I I I I I I I } / / } I v J I I / / I / / / / / I ^ / ..%._ P ",
"L L H A L H L H H P I I H J H J P L L P P L L P I L L L L I L L J L H J H H L H F H F L H H J L L L L ^ L ^ L ! ^ W L L I L L ^ ",
"$ $ : : : , 6 7 7 t t t 7 6 7 7 e e 7 w 7 6 6 6 6 6 6 6 6 6 6 * $ $ = = - 1 7 6 1 1 1 2 , , 7 u u t t p t u p t t 7 7 6 6 6 6 = ",
"c z c c z z z v b J J J J J K K P P F F C A S v J J J J J J J c z i z z z z f f j j j c v c F F ^ / / / I L L J v J J J J J v v ",
"J S m v v c z l l l i l l 0 i J c c l c v v v C v H J J v l v J J J J J J l z J S S D S c N F ^ %.%.;.` L v v v C J H J x v c J ",
"a p u t y i i u t 7 6 6 1 = * = q 7 7 w w w t w 6 6 6 6 6 7 t t p p y t y i y y i l k x k r V ^ ^ L W H a t w w w 6 6 6 6 7 7 t ",
"y i y p x x x N N i t t t 8 8 t t t y i y i y y i t y t t 8 8 t y y y p p p p J N N i k k y k B N x l v a i i i i i y t t 8 0 i ",
"o./ o.o.o.=.%.o./ I ..o...P L ` I P I ..o.o.o.o. . .o. ./ / ..} ` / ` ..o.+.%.o./ / o._ ~ F ~ }  .O.O.&.O.&. . ...O... ./ /  .} ",
"! H Z Z H ^ / ^ _ / _ I L J v J J H L V p A ! ( / _ _ E ! ! ^ ^ L H H H H ^ ^ ! L H N p y u N V B C G L F L ! ( ! ) ^ E ! ! ! _ ",
"e w w w 6 7 t u i p p i t 8 8 t t t 8 6 @ : 7 t u t e 7 1 : 2 w 7 6 6 6 6 6 6 6 1 * X   + @ * 1 1 2 w w w w t w u t w 7 1 1 2 w ",
"A A H Z N A I L L ^ L L P J L E H J H L A A L H A A A V N Z L E H H H H s N x p N N p V N i x k B B B B B B B B v C A V N Z F H ",
"[ ] ] ) ) [ *.*.-.-.-.*.{ o.%.;.;.;.*.*.;.%.-.*.*.-.-.{ ) [ -.-.] ] ` ) ) ] ` ] ) ) ( [ ) N e B B G F F F F F F P / -.%.) ' -.-.",
"[ ] Q W ] { { *.[ *.*.*.*.*.` [ ;.*.*.` %.%.-.%.%.-.*.-.{ %.-.-.{ ] W W ] { [ ] ] [ ] ^ _ t , @ # q q e p u N s N ) -.-.[ -.-.-.",
"8 < 1 7 6 7 8 7 0 t 0 0 0 0 0 0 e y 0 8 e y 0 7 r r e 5 8 8 8 e 7 7 6 7 7 7 7 6 7 < 7 7 < # # + + # % , : : < 2 7 e 8 8 e e t t ",
"X.@.X.| ..R R R X.R R K U I I X.X.X.X.@.X.#.#.| R | | | X.X.X.@.X.@.R R R R T R R R X.X.} P I P }  . .O. . . . .o.} | | | @.| X.",
"@.@.#.#.@.@.@.X.$.$.#.R R I T $.$.$.$.$.$.$.>.>.$.$.$.$.$.$.@.@.@.@.#.@.@.@.@.#.$.>.:.#.O.I } }  .X.O.O.#.#.#.#.#.#.$.$.$.$.@.@.",
"I T T T T } T | ....I J J m J K P K K K K J J J K J K I I I I U U T T } T T } | X.O...~ L L L P G } Y G P G C G S P K P T I Y Y ",
"l x c C H L L A L H v x l i y y i i l y y e 7 8 8 8 8 7 8 8 0 y k k V C A L ! F L ! ! ! A C A C x x x k k r 5 8 8 r 8 8 7 r r r ",
"o.%.%.;.;.;.;.&.;.<.2.,.=.P H J H S P A C c l x C V p p x v ! ! %.o.*.;.;.,.-.=.,.2.6.6.4.` ^ L F F L F B N k N B N i k x C P ! ",
"Z s Z E E Q E Q ] ] ` ) H t t H N a a N u w u t u a u u u p a s N s Z W W Q E ( _ ' ' ) H t u N N N N s u q u u a u u u t u s s ",
".   . o @ & @ & $ * = = * $ - , O X X X X X O o O @ @ o X X X X .   . o @ & @ & & = = = * + : 1 * @ # # # + + + O @ @ o X X X X ",
"i y y y i p V A H p H H J p p i k l l k i c V C v N V v a p p i h y u r y k N k h y C N p A H H Z A A x i 5 e x C V V B N x p p ",
"/ ..} } } / } o.....T K l x i J S S S J S P P P ....O.O.....o.T }  .} } } } } P P } } ~ P I } o. .&. .} S B C B }  .O.O. .......",
"H ! ! H L J H H J P K J J 0 i J A A L ! ! L L H C L H J H v H H A ! ! F ! F A C L L H v N i p p s L ^ H H H H J C F L Z A Z A L ",
"t w t e t t t 8 7 t 0 i y < , , < 7 e e e e t e 8 t 7 7 6 6 6 7 w w e t w t i e 8 7 7 6 , 6 u 1 = 6 8 8 7 8 8 t t t 8 e 2 2 7 w ",
"o.} o.I I ..O.I P P P P J J P J D I I } ........} } ..O.,.=.O.o.O. . .} P O.O.I I I K J J J O.I K P T ......o...} } } &.=.+.O...",
"} } ..X.....` I I ^ L L H 0 J J C D } I T T T X.} } } I T I ....} ~ X.X.....} } I I K J y y I J J K T I I T T T } } } Y } } ..} ",
"F F P I P P J H s H H N p t t t 5 e l y l l x x x c x c v J J J J J L P I P L J J J l i t 0 H H 7 0 x p x l J J z v v x C F J P ",
"c c x x v a l p y 0 i y y y 0 p y 9 9 9 0 0 l 0 0 l l l l x l J N x N v v x x x c x p y 0 t 0 p y 0 0 9 0 i 0 0 y y p l l c x v ",
"$.$.$.$.+.$.+.#...X.X.X.O.R T R R R @.@.@.X.@.@.X.X.#.#.+.#.+.$.$.$.$.$.+.$.$.$.+.X.X.O.../ ..R R R R @.@.R #.#.@.X.#.#.#.#.$.<.",
"O.o.T X.X.O.+.+.=.=.=.=.+.I T +.X.+.+.X.X.O.#.X.I I I T ....O.o.O...R ..X.O.+.+.O.O.+.+.=.I T X.#.+.#.#.X.#.X.R I P P T ........",
"N V N V N V V V Z V V V H x x v V V V C V V V N t i p x N N N v p V v s N V V H Z C F L F x V C C C V V V V V N u i i N N V N N ",
"c c x x x c l c v x x l 0 y y y l l l i y y y u t i x x v v c z c x x x l x l l x l l h y 8 5 5 8 8 9 y y y y y y i x N B l x c ",
":.$.#.O.=.>.$.O...X.T Y J m K R T R R T T T } } O...X.<.<.<.<.<.>.$.+.O.+.<.$.#.X.| | } T S y B S Y D } R | } } O. .X.>.<.:.:.>.",
"=.O.O.:.;.=.*.o.` o.=.o.I I z J I ..$.<.=.:.O.<.,.O.<.3.*.O.=.;.+.O.O.:.:.=.*.o.o. ...%.o./ k C ~ F S }  . .O.,.=.O.,.4.&.&.=.<.",
"N x x i x p p p i t u p a p t p p x V V x A H p t L L E e p N N N x x k p x p p p e t i u t 7 7 8 e 5 8 r r k y i N A L t N N N ",
"B B C S F A C v c x c C x p x p y 0 y y y y y y y i p x x v v C B c C A J C C V N c N C c c p p x y u r r u u e i y i k x c c C ",
"Y / ~ / O.&.+.+.o.+.O...I I P c C m m S v m v v c v v m J J P I I / / / ..=.O.O...+.O.../ / T I / } } ~  . ./ H / } P S F J P I ",
"F P ~ } / O.o./ L I L / J H J J C S J C C C v v v v J v J C J J F P P / o.o.O./ / L P / L P L P L ~ / L ~ P P  .} } P S F S J L ",
"i x x i i N i e t 0 t t 8 7 6 6 8 8 t t 0 t 8 t i i t t u u t 0 i x x p i a i e u u t i i y i x N v x p x v C C B x p u u i t t ",
"L ! / ^ ! A Z N a H H a 7 7 6 $ * y p V C N V I / ^ / P P H V H L L ` ! L L V N N C C J H A ..=.;.,.,.,.;.&.%.*.%.o.o.o./ H V H ",
"a H ! ^ A Z A A L L I L 0 7 p t p H V H V p t p H H L ! ^ H H ( Z H I L H Z A H H ! ! P H x o.1.5.5.8.5.1.1.5.5.6.5.5.4.[ H A ! ",
"Z i t i N a a a a a u 0 6 , 7 u a p p p a w w q a s s H E E H s V u t p a a a p a p u u u t ;.9.9.0.0.5.8.5.8.5.5.5.5.3._ H H s ",
"< - % * : : * * * $ # + + + $ * * % # # $ # # % : : : : , , * , , : - % , , : % * $ $ $ % : i V H H N p p N N x N p x p 6 , % , ",
"T T R T T Y U P I K J J K J K P U U K K K Y U K U U R Y U Y Y U T T T T T Y K P T U K K K K S F K P I I / ~ J P P J J K U Y Y Y ",
"+.O.O.$.$.O.O.X.O.T K J K J I R R R +.X.R #.@.@.X.X.X.X.@.#.X.| O.O.O.+.$.$.X.X.O.X.....o.P J H ` o.=.o.o.+.o.../ / I ..#.X.X.R ",
"A P / } / } / / L J H J z J H I I T / I / I ....I J P P I } ~ C F P I } } / / / / / ! / P A x i H P .._ o.^ L ! ! H H P I / I J ",
"i y x x N x x N C N x y r e r r 0 y y k 0 k l i 2 2 9 y k x x x i k i N N x c B A x x k y h r r 0 v N i h k k y 8 5 r y i x x x ",
"X.} O.=.O.~ ..O.:.+. .} G D D m D U Y Y K T X.T c z D Y } X.O.X.| |  .:...~ .. .:.+.O.} P G G Y I T T U D } X.} c l D Y |  .&.O.",
"X.X.X.X.| X.X.X.X.| } ~ P S G G M K U U D D U D c z m D K R R R O.@.X.X.X.O.X.X.#.O.| } } P Y } ..X...R D D U D m b D D D R | | ",
"G D P I P Y I } } I J F C B S S J S m v m m m c k r j c M m S J G G K P P I Y I } Y } Y G P ~ / / / I J G S P D B k z c n M S D ",
"g y f g l h j h l l y r 9 y 0 0 9 8 0 8 8 y 0 h 0 9 0 y l f k h g y 0 f h j h h g j h k k y r e 8 8 8 8 8 8 5 e 0 0 0 y h h h k ",
"M M M M K U D D M M U D n n n M M M M z z z b n M M M M M M M M M M M K D D U U D D D D m n b b b b n n b c n n M M M M M M M M ",
"z c j c z b n n b c c j 0 ; 8 9 9 d f 0 0 0 9 9 f 0 g g f h g g z z z b z b n m j c z j g 9 g j j j d r h g j h h d h h j g h h ",
"k y r y 0 9 y h r 9 r 9 2 , 2 8 e e r e e r 7 e i r i i 0 y y i i r r r r r y h g r r r 8 r r 8 8 9 8 5 e r r g r r r r r y y y ",
"L F F C c V L / o._ _ ! A C N A L L ! L ! ! / / ^ P / ! / / L I L L F A B C A /  . ._ / o.[ %.%.%.%.%.' [ o._ / / ! ~ ! / ~ L / ",
":.O.} T P P } =.1.1.1.1.:.! / ..X.&.=.+.=.=.&.$.%.+.=.+.+.O.+.+.:.O.Y } P P } =.,.1.1.8.5.5.5.9.7.9.6.9.6.6.6.3.,.&.:.=.+.O.O.=.",
"P D S S S S K } $.:.O.:. .A F P ~ } } } ....X.} K K K P S S P T P S S S S S K } :.:.&.=.O.~ / ,.2.,.,.3.3.,.;.;.&.} G G D S Y } ",
"r 5 < < 5 8 9 x B B x N y t r i k N N x x y i y 9 9 0 h l l x k 9 5 4 < 5 8 r k B B B x i i k C F A V B B k c B c h h h l x x l ",
"k j g y g y l c x z y h g y y g 0 f 9 8 9 8 8 4 8 f f f g j h z j h h y g y y h h h g g g g r 4 3 5 5 4 4 4 > 4 5 d f f h f j z ",
"b n z c v K R T X.T U K K M K T T U Y U U U U K K U M M m m D S S P D D D K K K P P S m c k r 5 5 e e 5 > ; > > 3 4 4 9 9 d d 9 ",
"J J S P ..O...O...} P L J J S Y } ..X.X.R | X.#.#.X.X.X.X.X.X.} T O.O.+.O.O.O.O. ... . .} ~ V k N A / _ / ! ! A S C C F P I I S ",
"C A H P ! P L P L / L A C C H L L ! / / I / / / / P F v G L P F B V F P / / ~ ~ / / ~ ! / ~ F x k S }  ._ / / / / ~ A F G P L F "
};
