/* XPM */
static char *result[] = {
/* columns rows colors chars-per-pixel */
"64 64 244 2 ",
"   c #2E3334",
".  c #4C3E3E",
"X  c #3B3B43",
"o  c #3C4D4D",
"O  c #474B49",
"+  c #534D4B",
"@  c #5C5B5C",
"#  c #585655",
"$  c #4F5453",
"%  c #68585A",
"&  c #76595E",
"*  c #576359",
"=  c #68635D",
"-  c #5A5C65",
";  c #665D64",
":  c #785A67",
">  c #5C6264",
",  c #5A6669",
"<  c #5E6973",
"1  c #646264",
"2  c #6B6463",
"3  c #6C6A67",
"4  c #65646A",
"5  c #6C646B",
"6  c #646B6D",
"7  c #6B6B6C",
"8  c #646A65",
"9  c #736264",
"0  c #72656C",
"q  c #746C6B",
"w  c #7C6C6C",
"e  c #7A6966",
"r  c #69756C",
"t  c #73726E",
"y  c #79746D",
"u  c #6C6C72",
"i  c #6A6A75",
"p  c #746C73",
"a  c #7C6C74",
"s  c #786A77",
"d  c #6B7273",
"f  c #6B7A7B",
"g  c #697679",
"h  c #747373",
"j  c #7C7374",
"k  c #747A75",
"l  c #7B7A75",
"z  c #75747A",
"x  c #7B747A",
"c  c #747A7C",
"v  c #7C7B7C",
"b  c #86695E",
"n  c #93765E",
"m  c #836C6D",
"M  c #8B6C6B",
"N  c #876968",
"B  c #946B6C",
"V  c #8D746C",
"C  c #87746C",
"Z  c #92746E",
"A  c #95796A",
"S  c #826D73",
"D  c #8B6C73",
"F  c #866B78",
"G  c #986E75",
"H  c #847374",
"J  c #8B7474",
"K  c #837B75",
"L  c #8C7A75",
"P  c #84757B",
"I  c #8C757B",
"U  c #837B7B",
"Y  c #8B7B7C",
"T  c #937473",
"R  c #9B7574",
"E  c #957A75",
"W  c #9B7C74",
"Q  c #93757B",
"!  c #9B747B",
"~  c #937B7C",
"^  c #9B7C7C",
"/  c #A8756C",
"(  c #A37C7C",
")  c #A67779",
"_  c #A87073",
"`  c #925E6B",
"'  c #7B827D",
"]  c #76837D",
"[  c #6B8279",
"{  c #84837D",
"}  c #8C827D",
"|  c #888677",
" . c #94837D",
".. c #9C837D",
"X. c #968476",
"o. c #948D70",
"O. c #A6827C",
"+. c #A99A7B",
"@. c #757582",
"#. c #747C83",
"$. c #7C7C82",
"%. c #7B7D89",
"&. c #797985",
"*. c #777280",
"=. c #837682",
"-. c #837B82",
";. c #8B7C83",
":. c #897987",
">. c #937D83",
",. c #9C7B83",
"<. c #957B88",
"1. c #906E86",
"2. c #A67C83",
"3. c #B47F85",
"4. c #7C8285",
"5. c #7D848B",
"6. c #798987",
"7. c #7D8F8F",
"8. c #848384",
"9. c #8B8384",
"0. c #848A84",
"q. c #8C8B85",
"w. c #84848A",
"e. c #8B858B",
"r. c #848B8B",
"t. c #8C8B8C",
"y. c #938384",
"u. c #9B8383",
"i. c #928B84",
"p. c #94848B",
"a. c #9B858B",
"s. c #948B8B",
"d. c #9C8B8B",
"f. c #9C8B84",
"g. c #88938B",
"h. c #94938D",
"j. c #9B928D",
"k. c #979487",
"l. c #838C93",
"z. c #8B8C92",
"x. c #878793",
"c. c #938592",
"v. c #938C92",
"b. c #9B8D93",
"n. c #9B8997",
"m. c #8C9394",
"M. c #8D9499",
"N. c #8E9B9C",
"B. c #869595",
"V. c #939394",
"C. c #9B9394",
"Z. c #949A94",
"A. c #9C9A94",
"S. c #93949A",
"D. c #9B959C",
"F. c #949B9C",
"G. c #9C9B9C",
"H. c #A28583",
"J. c #A38D8C",
"K. c #A88888",
"L. c #B18787",
"P. c #A4938B",
"I. c #A8978C",
"U. c #A48D92",
"Y. c #AA8D94",
"T. c #A39393",
"R. c #AD9C94",
"E. c #A2959A",
"W. c #A39B9B",
"Q. c #AC9A9B",
"!. c #A89896",
"~. c #B39A99",
"^. c #B18E94",
"/. c #99A39C",
"(. c #8EA697",
"). c #A4A39C",
"_. c #ABA49C",
"`. c #A8A498",
"'. c #B4A69A",
"]. c #ADA187",
"[. c #8D9CA2",
"{. c #9C9DA2",
"}. c #959BA6",
"|. c #9C9FB0",
" X c #A49CA3",
".X c #AA9EA2",
"XX c #A79BA5",
"oX c #B49EA3",
"OX c #A48FA0",
"+X c #8DA2A4",
"@X c #94A3A4",
"#X c #9CA2A4",
"$X c #9BA5AA",
"%X c #9AA9A9",
"&X c #9DAFB2",
"*X c #A2A3A4",
"=X c #ABA3A3",
"-X c #AAABA4",
";X c #A4A5AA",
":X c #ACA5AA",
">X c #A4ABAB",
",X c #ABABAB",
"<X c #A4ABA6",
"1X c #B4ACAC",
"2X c #B7A8A7",
"3X c #ACB2AB",
"4X c #A7B1AA",
"5X c #B4B2AD",
"6X c #B7B4A9",
"7X c #ACADB2",
"8X c #A4A8B2",
"9X c #B5ACB2",
"0X c #ACB3B3",
"qX c #AAB6B7",
"wX c #B3B3B3",
"eX c #BBB4B3",
"rX c #B4B4BC",
"tX c #BCBBBB",
"yX c #B8B9B8",
"uX c #C6B6AC",
"iX c #C3B7B7",
"pX c #C7B2B3",
"aX c #BCC2BD",
"sX c #B8C3B7",
"dX c #AFC1B3",
"fX c #C6C4BB",
"gX c #D3C8BD",
"hX c #B9BCC3",
"jX c #AAB7C0",
"kX c #C3BDC1",
"lX c #CABDC3",
"zX c #BBC5C6",
"xX c #C4C3C4",
"cX c #CBCAC6",
"vX c #C9C8C8",
"bX c #D3C7C7",
"nX c #CAD1CD",
"mX c #D6D3CB",
"MX c #C8D2D4",
"NX c #D5D4D4",
"BX c #D1CCD3",
"VX c #E2DDDB",
"CX c #E4E1DB",
"ZX c #DADFE5",
/* pixels */
"=XE.=X1X7X;XM.f |.4.#.5.%.%.w.l.o.`.R...+.J L J y.Y q l p 9.9.j  XtX:Xs *.*.%.w.t.F./.dXg.] ' r ] g.7.7.o < , , ] q.A.6XsXk.| -X",
"J.P.d.C.=X,X7X8.hX8XF.*XS.;XrXkX..P.P...E ~ ..S = w W.V.8.v.-.U c $.c > i i @.&.z aXtXeX5XU ; H k q.c c i ; - 7 y e m w X.'.'.I.",
"Z ..V L  . .T.K 5X=XH } j H S H e | e e L H m Q.p.s.NXiX7X,XD.G.#XF.@X&X&X8X7XrXG.W.2XbXuXQ.iXlXbXlXiXXX=.; : ; & e B M B ,...~ ",
"W W Z .... .} w NXiXL w H w H ~ y U y.~ w w y.iXv.j %.4.$.u i u u g @.&.@.%.%.-.{.).2XQ.d.U.pXY.^.K.^.a.: & F ` B G G _ K.) B K.",
"J...P Y Y C.;.9.lXhXn.*.P p p.b.j h ;.s.XX9Xb.=.G.w.x.}.r.4.@.&.I :.=.=.:.&.*.:.:X1X6XI.q.K j.d.G D I ~ <.<.w I D ^ ! G 2.2.Q K.",
"; j :.x 7 :.i &.@.:.&.- i - i - ; # 1 ; P x x v.w.w.S.r.i 4.w.}.<.:.*.s :.i 0 :.1XmXcXmXCX`.} iXu.Y P 2 ; D.=.9.p.H ~ ^ S H a ; ",
"&.;XBXvXhX8X}.|.}.|.}.7.|.|.8X|.S.4 D. Xn.-.v.e.- d M.m.4.6.4.z v z $.s *.4 *.*.U K  .P...P.R.I.} ' y +   4 7 1 p 2 h.fXNXmX5Xg.",
"p %.S.%.x.i z @.%.%.%.x.M.5.:.}.7Xm.wXv.D.D.G.w.#X>XF.%XqX}.rXm.* 6 l.g 6 i v.e.l H L ..E J.L.K.'.`.A.).*X,X*X<X).).A.h.t.m.F.7X",
"h.l C.A.v l j 7 z @.-.8.h 8.$.u #X>X%.7 p 8.*X,Xh./.qX4X4X0.r.).N.qXMXzX$XG.8XV.K w C X.O...^ K. .P.s.T.kXtXkXkX.Xs.} l U x u r.",
"C.h.i.l K 9.i.j.U 9.t q U 7 = U F.8X#X1 x F.9X/.g./.dXfXxX).q.h.3XwX8.h -.z x 9.j K  .| X.P...C V e C y.S e.p.U P H H S P -.x 8.",
"$ ' V.0.l l U l q.U v h v 7 c t.[.4 |.|.c d t.7 q./.Z.dXcX).`.-X2X!.a 3 x U p.C.eXuXfX6X6XfX2XP.H...,.!.>.c.n.p.U.<.P 9 0 -.e.e.",
"@XN.M.%X%X;X;Xi O i c > - , , < X , %.7. XV.l /.Z.3X/.k.' y L uX=Xs.H q 0 U v.s._.R.R.'.'.'.`.~.I.P.L Y s.=.E.c.j I C..X1XiXXXz ",
"+X+X|.jX[.B.8X$XM.|.hXhXM.|.jX|.#.7.7.x.{.{.D.,XyXtXmXcXcXgX .I.6X`.h.A.=X=XC.d.C e N N N V B ! u.H K } c.e.x + l a j U e.,XwXM.",
"[.&XjXzXhXm.5.M.7XhX}.z.l.5.7.MX5.@.#.%.S.z v 8.0.).).6X2X~.~.~.3Xi.).fXiXeXoXd.L E R Z B B B ) f.u.=X1XkXNX-.; C.q.P j j t.>X X",
"m.{.qXhXxX:XE.eX9Xb.q 2 p z M.jX@.- *.i :.@.u h h U q 9.d.L ^.O.I.N X.d.H H I w L E ^ T R ) ) ( C J J a b.9X=.p ;.P H Y U U v.v.",
"*XG.-XA.} y.P.uX~.~ w 9 L p.b.:.- - i - ; @.4 e.t.1 P j J L E K.O.W ..T Q ^ N D ^ T E V V E L ~ ~ J H P :.C.9Xa I S e 9.y.=.v.v.",
"<XdXsXsX).A.y 4X-Xg.' ' 6.g.m.8.o.o.o.| | g.h.g.l # q.I.o.].+.o.b b V b N A b M M ( ..T ..~ u.Q E ..C C | 6XyXdXk.0.K K I ! ,.2.",
"(.3X6XfXmXiXj.6XeXV.eXmXcXfXbXiXgXfXmXmXNXmXmXNXyXp W.mXmXmXuX'.6XI.I.'.I.R.R.R.I.R.L 9 j y.2 q C K K } l k | /.<XZ.$.z U e.a P ",
"o.e L d.Y 2.R.H.Y.m Y.Y.,.Q ,.,.' t.-XV.v.e.c.e.;.p P XXiXpXs.s.k.`.fX-X6X_._.j.C.eXW.A.5Xl O ,XxXxXwXA.s.e.{.0XF.#X0X0X;XS.#.8X",
"=XQ ~ ^ ! Q G 2.Q M u.m Q Q D ! y h ;.j Y I H H S u.J H ~.E.a a = | `.= i.l j v 3 t.,X{.<Xe.-.}.!.=XpX2X9X9XoX2.b.b. X;X8X$X6.hX",
"oXS 1.D ,.Q N 1.J I y.Y } Y H I Y l y.T.2XI.W ( O.A T E u.J.a.;.K Y T.q W.p.q v 8.e.c.c.v.:.c.c.Z M W B ) _ ) 3.) ! Q J d.C.k ,X",
"lXH H a S F H H l r 8.Z.' t k l x s.E.P.R.+.X.X.o.A X.C J Y Y ;.I H Q.E.b.W.z.;.v.tXc.s :.c.=.n.O.( O.) ) _ / / _ _ ( X.d.K | mX",
"tXD.c h v p p h # O r 0.k ' d ' ;XtXtXC.A.W.I.`._.eXeXD.G.:Xc.D.;.-.p.$.@ > w.g $., $ &.e.:.s c.C o.A A ) O.O.O.L.R L C o.y ' sX",
"7.d $ 6 @ 7 >XV.<XZ.g.{ { :X>.2XBXhXhXnXZXMX%X/.zX7XzXhXhXNXhXhX:X.X7X*XZ.o < o o o , , 5.%.i i * = e | e e 9 e 9 K | r ] [ [ [ ",
"+XB.[.@XV.h %.h j p.e.Q.U.H.Y.2.a..X:XE.V.rX5.5.%.%.#.5.{.<.:.a U U 7 t.m.> 4X6.c 7./.#X{.7XvXkXrXqXMXMXZX0X@Xd rXMXzXjX&X+X&X+X",
"4.6.t.r.x s y.a.9 Q.<.N Y.! G 2.( B ^ D ;.p.rX%.@.&.:.s ~ ..^ R a S P P K 1 /.t.Z.8.v z x e.p.<.5.5.5.M.l.l.jX#.6.7.5.&.%.i %.%.",
";.P P :.1.I F ,.P a.S S ^ ^ ! Q / n b W L s.vX{.w.v u P ..C A B D J ,.>.y.% s.p.j P Y P J >.a.;.:.c.s :.w.z z.z.x.}.n.:.1.s 1.1.",
"<.1.Q 1.F m S 9XbX=Xp._.2 q K Y n X.A ..j G. XrXrXS.z.j K ..C A Y m w y.P . Y W.b..XW.Y 0 H ;.>.<.9 P S P 3 8.h.-.e.:.a <.2.1.G ",
"D D I ,.I 1.p.mXVXtXZ.sX%X/.h r i.i.h.t k f d [.@X@XB.l.0.v v l = @ # 3 3 # G.cXcXnXyXV.v l l h m e Y 9 q y { t y K } H <.Q D G ",
";.a.>.y.;.H j C.t.h.0.0.{ y j s.nXcXnXtXtX;X,X5X;XS.7XhXzXqX7.$X,XZ.).t.Z.-X<X*XG.G.*X<X<X#XF.F.} eX`.j.`.3X`.t.k t { q.Y P H } ",
"$ * @ * % # 3 { q t 9.Y Y J Q ,.} y.9.T.H.H.J.( D H.~ Y b. Xe.S.yX9.S.t.E.tXE.j j x p i 7 1 @ - 3 7 = c v V.<XZ.A.4.k $.h v * $ ",
"7.6.] g.<X4.{ P l Y Y ,.Q G ` B J ^ ^ / ) / / / / / / T u.d.H 9XvXe.x I :.p.a.;.S :.a % 3 -.v x r.4.m.t.,X8XF.;X,X0X0X;X#.#XS.6.",
"^.Y.Y.oXpXE.P a x x x 8.8.l v j ) O.O.) O.) ( ( 3.( H.^ Y P.q eXZXn.x x =.a Y I m J ..H Q.Q.oX2XR.I.'.'.I.O.O.O.f.R.T.1Xt.$XqX7.",
"a.s F P S q a P 2 # # + + # 2 3 b % N C N N ^ J w w y t 8.l r Z.8X}.z c ;.P H L  .H u.d.p.d.T.C.L C A A R R W R T ^ a.y.v ,XzX#.",
"0 =.a a c.x x tX=Xs..XE..X=XeX9Xg.k.k./.eXk.t t l -X3Xr.N.6.7.[ @.%.7 ,XBXmXiX,X_.i.s.h.j 1XwXv ^ ..H.W R H.( ( R ^ ,.a.s lXBXw.",
"x s h $.v.v z XXeX9.C.9.p.b.U.b.4X4XsXyXaXzXwXr.B.yX0X%X/.N.}.@X}.#X}.*X8.l q.q.h.9.q.{ r vXnX] e m m .. .K.V D Q I >.b.s iXrX{.",
", i 6 - - @ g xXkX-.-.a H ;.Y Y { p l x v j v.D.7 :.w.x z 5 4 i h 7 ' j l q.9.t K l t.t.0.qXzX}.l 3 % 3 q q y d.9.j 9.h z c %.%.",
"[.8X@X$XqX4XS.rXBXv.P j F >.<.>.b.Y S P c.0 x XXc.{.OX:.c.<.1.1.p.P } 0 H q = } K H { h h z @.&.@ l 3X,X*Xk F.NXzX0X0X}.$X{.F.{.",
"7.#.5.l.%.}.8X}.rXv.p 0 9 P F P <.a s 0 s w.v.i r.:.-.x :.;.n.E.H H ,.a.U.K.U.bXlXiXeXW. X;X{.XXv.-.-.%.#XV.c c 8.#.7 u i -.x &.",
"#.#.#.#.f #X#Xz.7 z 5 U j ;.a 9 0 u s $.F.M.5.f g $XN.M.$.z.$.4 D ^ K.~.K.~.~.H.Q F a 0 P =.x -.=.s.-.-.-.D.w.V.{.8.$.=.a a <.:.",
"@.#.i @.#.M.}.7Xi 8.*X,X=XD.D.a c.x.8.V.zXqX7.+X&X7.%X&X&XqXN.6 ! K.2.^ Q H.D ~ ~ >.Y P =.;.e.=.:.x s z e.w.r.M.%.h e.v.D.p.:.P ",
"#.@.4 *.#.[.i S.8X$.d u u p v a n.P p x m.wX%XB.(.4XzX(.g.7.Z.#X~.2Xu.J P.~ a.u.d.;.b.p.0 e.{.0 -.z x.z.#., c [.7.l.f c x -.=.-.",
"- i ; =.- X $ z 8.;X*Xu 4 v i c D U.<.a P C.h.A.).,XcXnX5Xt.W._.T.s.i.d.q.i.P j K j x 8.t.s.q.c z m.hX4Xl.B.4XB.%X@X%XsXr.> 1 k ",
"BXS.{.8XkX;Xv.}.z.z.z.8.8.{.8.c Q <.1.I >.Q.C.W.W.W.eX2XW.R.pXT.yX).-X)._.cXtXtX_.tX*X1XVXxXZ.-XV.v ).3X#XN.$XF.qX>Xr.7.>Xh.3XvX",
"-.x -.-.kXc.@ &.1 }.-.u c -.@.w.p =.0 8.=X9.% e.W.eXW.Y K Y 2XbXcXNXyX' tX).3X-XwXfXyX5XcXfX_.W.2XH Y E..Xs..XkXxXvX,X8.V._.iXq.",
"q v s V.7Xh @ c $.4.v x.$.s $.s c u 4.m.-   $ ] cXvXmXVXcXy.Y s.' m.*X7 t.h l U 8.9.} P K L L Y ~ J m S s.T..X=XpXbX=Xh.eX1XC.H ",
"t 2 w.t.j h # z x.v.e.z P :.=.5 g 7.+X%X$Xk 4.V.h.t.W.C.T.!.T.K 9.$.eX=Xh U q P i.y.L J J N N H.L H L w y.j.=XW.W.-.y k.6X4Xq.3 ",
"t.V.A.V.G.G.G.e.c.; x z s 0 7 ; g f , $ [.%X*Xe.p x ;.w y.d.~ ~ -.8.,X9XC.U P a Y ~ ~ T T ^ ^ R | K | 2 3 h.xXcXvXaX3X[ <X<X/.0.",
"vXvXlXvXhXxXkX0XrXf > 7.B.4.g 6.5.g O 4.6.S.*Xq.H H J R A M A M N L H s.fX/.h.{ q p.I P q 7 d 6 w H w 0 w } R.6XuX'.uXR.].6X| 6X",
";.;.:.XXiXe.w.z e.G.yXBXzX7X#X#X7XBXx.S.#.t.V.j H J T T M M A T J L % t ).V.).W.d.T.j =.v 1 > 6 @ ; 7 q l v y e f.E E K.I.P.X.X.",
"t.s.U C.,Xq x q.x  X:Xc.p s 0 a z.tX1 h d v e.H I J J T M M Z Z j L + s.=XA..X1XwXiXW.D.xX{. X;X<X0XxXqX).h.| Y  .W ^ K.^.K.^.O.",
"0.G.0.F.V.{ v 8.9.W.E.:.S P P ;.D.G.$ 6 d 3 7 j U J H Q J ..Y L P 9.% d.Y Y S 9.8.G.6.v vX8.e.-.v z 8.l h U w H m ^ K.Z I.H.E ..",
"r 8 * * * k r 3 3 h t 1 1 5 j e.v k 8 * 8 8 6 t v j j K j y.v j t v U Y I a.<.e.t.m.c F.ZXv.x s :.F p.P a y.Y y.~.2XpXuXgXP.= = ",
"`.Z.3X`.-X3X*XA.A.=X1X,XwX9X9X9XwX-XzXyXaXqXsXtXv l x x % p 1 7 r * c.I U.<.>.9.8.B.g %XnXtX:.P s F n.<.P ;. .u.f.H. .d.J. .`.`.",
"P.H.K.~ ~ Q ^ J.Y.d.U.p.E.:XeX9X,X).5XyXcXaXcXcX.XW.E.C.v S.8.w.0.7 P 3 a a a p z 4.6 4.w.}.; ; 0 4 s i ; 2 2 # % e e m H  .d.i.",
"_ L._ ) ) ) G 2.! Q ,.^ Q S I w m J q w P K Y y.>.H P F p c.x s x -.P U P iXxX9X,X XS.F.z.v.-.v.l.l.l.5.< 6 8.P p.~ J Q U.~.D f.",
"( ) O.R 2.) ) K.T N Q u.~ Y ;.H T ! M m Q J J u.,.F G ,.: <.c.n.x p.G. Xz {.{.S.z.-.e.v.z.S.S.F.[.@X@XqX$XF.zX=X=XQ.y.f.Q.pXY.Y ",
"..f.T.o.L u.L 9 !.E.y.j w P K v D T J Q ^ J E ^ G D I ;.s <.P *.p.p :.;Xk r.m.e.x p 0 0 s x f k @.#.i w.;X{.* j l q K 9.p.q.k _.",
"dXdXzXnX4XfXfXyXNXCXeXh.q.{ y k C S C L H e C C ;.~ H 0 s e.w.r.a :.s z.m.B.l.w.-.c.c.;.-.w.4.g *.s x x.F.hXz 6 9.t.eXyX3XaXnX%X",
"%X(.7.(.(.4X4XG.1X5X-X=XeX1XW.eX{ 3 = # + O = # + # 2 @ u %.6.g a ; -.k d #Xc k j ;.p.p.8.h d 7.*.- %.}.r.G.-X8.q U _.cXNXfXsX8 ",
"[ [ [ r ] t.8.P H a w Y u.I H y.8.h 7 k ] 0.`.`.A._.sX3X/./.%X6.9XD.8.4.] m.*X XV.C.9.; 5 v d > , < < , o < m.z.U Y w d.uXy.W.j.",
"] k v 7 9.;.Y y.~ D I ,.Q J D m x 0 q l | { i.}  . .j.i.P 0.#X0.G.0Xv.D.:X<X{.,XS.wX7X' v /.=Xv.%.+X[.6.$ m.m.C.P S H m d. .~.pX",
"yXv.-.x ;.>.1.F I Y Y ~ ~ >.Y S N F w Y  .X.^ E T T W Q I y.d.P 4XxXv v.P c.BXyX*X] 4./.zXxX:XXXx.x.jXzX$.S.v x i.q H H L P =XpX",
"rX9XXXn.s ;.y.;.S a 9 ; q t t l & F N G ^ T R ) ) L.) R 2.,.^ e zXMX8.j p b.1XiXwX(.%X0X*X8.u : *.1.:X|.# 5 q q 9 p.y.} } } A.g."
};
